<?xml version="1.0" standalone="no"?><!-- Generator: Gravit.io --><svg xmlns="http://www.w3.org/2000/svg" xmlns:xlink="http://www.w3.org/1999/xlink" style="isolation:isolate" viewBox="0 0 400 400" width="400" height="400"><defs><clipPath id="_clipPath_auw419mXGXg1quuOpGIeaRcw1NxFqAOR"><rect width="400" height="400"/></clipPath></defs><g clip-path="url(#_clipPath_auw419mXGXg1quuOpGIeaRcw1NxFqAOR)"><g style="isolation:isolate"><g><path d=" M 344.415 56.804 L 344.415 353.15 C 344.415 366.313 334.709 377 322.753 377 L 77.247 377 C 65.291 377 55.585 366.313 55.585 353.15 L 55.585 46.85 C 55.585 33.687 65.291 23 77.247 23 L 311.994 23" fill="none" vector-effect="non-scaling-stroke" stroke-width="2" stroke="rgb(255,255,255)" stroke-linejoin="miter" stroke-linecap="square" stroke-miterlimit="3"/><g><path d=" M 313.931 41.426 C 312.684 38.43 311.994 35.097 311.994 31.588 L 311.994 23" fill="none" vector-effect="non-scaling-stroke" stroke-width="2" stroke="rgb(255,255,255)" stroke-linejoin="miter" stroke-linecap="square" stroke-miterlimit="3"/><line x1="344.415" y1="55.438" x2="342.697" y2="55.438" vector-effect="non-scaling-stroke" stroke-width="2" stroke="rgb(255,255,255)" stroke-linejoin="miter" stroke-linecap="square" stroke-miterlimit="3"/><path d=" M 342.697 55.438 L 333.657 55.438 C 329.223 55.438 325.099 53.969 321.674 51.434" fill="none" vector-effect="non-scaling-stroke" stroke-width="2" stroke="rgb(255,255,255)" stroke-linejoin="miter" stroke-linecap="square" stroke-miterlimit="3"/></g><path d=" M 321.674 51.434 C 318.31 48.978 315.608 45.512 313.931 41.426" fill="none" vector-effect="non-scaling-stroke" stroke-width="2" stroke="rgb(255,255,255)" stroke-linejoin="miter" stroke-linecap="square" stroke-miterlimit="3"/></g><g transform="matrix(1,0,0,1,80,57.5)"><text transform="matrix(1,0,0,1,13.316,71.712)" style="font-family:'Offside';font-weight:400;font-size:72px;font-style:normal;fill:#ffffff;stroke:none;">CV</text></g><line x1="101.019" y1="172.889" x2="298.981" y2="172.889" vector-effect="non-scaling-stroke" stroke-width="2" stroke="rgb(255,255,255)" stroke-linejoin="miter" stroke-linecap="square" stroke-miterlimit="3"/><line x1="101.019" y1="202.291" x2="298.981" y2="202.291" vector-effect="non-scaling-stroke" stroke-width="2" stroke="rgb(255,255,255)" stroke-linejoin="miter" stroke-linecap="square" stroke-miterlimit="3"/><line x1="101.019" y1="225.713" x2="298.981" y2="225.713" vector-effect="non-scaling-stroke" stroke-width="2" stroke="rgb(255,255,255)" stroke-linejoin="miter" stroke-linecap="square" stroke-miterlimit="3"/><line x1="101.019" y1="255.115" x2="298.981" y2="255.115" vector-effect="non-scaling-stroke" stroke-width="2" stroke="rgb(255,255,255)" stroke-linejoin="miter" stroke-linecap="square" stroke-miterlimit="3"/></g></g></svg>